<svg width="48" height="15" viewBox="0 0 48 15" fill="none" xmlns="http://www.w3.org/2000/svg">
  <path d="M18.8 0.4L12.4 14.6H8.2L5 3.2C4.8 2.5 4.6 2.2 4 1.8C3 1.3 1.4 0.9 0 0.6L0.1 0.3H6.9C7.8 0.3 8.5 0.9 8.7 1.9L10.4 10.8L14.6 1.4C14.8 0.8 15.3 0.4 16 0.4H18.8V0.4ZM35.3 10C35.4 6.3 30.3 6.1 30.3 4.4C30.3 3.9 30.8 3.3 31.9 3.2C32.4 3.1 33.9 3.1 35.4 3.8L36 1.2C34.4 0.6 32.5 0.3 31 0.4C27.2 0.4 24.5 2.4 24.5 5.3C24.5 7.4 26.4 8.6 27.9 9.3C29.4 10.1 29.9 10.5 29.9 11.2C29.9 12.3 28.6 12.8 27.5 12.8C25.6 12.8 24.5 12.3 23.6 11.9L23 14.6C23.9 15 25.4 15.3 26.9 15.3C31 15.3 33.6 13.3 33.6 10.3L35.3 10ZM44.7 0.4C43.8 0.4 43.1 0.9 42.7 1.6L36.6 14.6H40.8L41.7 12.2H46.7L47.2 14.6H51L47.7 0.4H44.7ZM42.6 9.8L44.7 4.1L45.9 9.8H42.6ZM23.3 0.4L19.3 14.6H23.3V0.4Z" fill="white"/>
</svg>
